# xmcd
#
# Track frame offsets: 
#        150
#        15295
#        33233
#        48084
#        60055
#        67358
#        80409
#        98787
#        111470
#        126786
#        138900
#        150127
#
# Disc length: 2154 seconds
#
# Revision: 0
# Processed by: cddbd v1.5.2PL0 Copyright (c) Steve Scherf et al.
# Submitted via: ExactAudioCopyFreeDBPlugin 1.0
#
DISCID=8a08680c
DTITLE=Nashville All Stars - Classic Country Instrumental Gold
DYEAR=1998
DGENRE=Country
TTITLE0=I'm Movin' On
TTITLE1=El Paso
TTITLE2=Mama Tried
TTITLE3=Stand By Your Man
TTITLE4=John Henry
TTITLE5=Rose Garden
TTITLE6=Night Life
TTITLE7=The 8th Of January (Melody For "Battle Of New Orleans")
TTITLE8=Crazy
TTITLE9=White Lighting
TTITLE10=Ring Of Fire
TTITLE11=King Of The Road
EXTD=
EXTT0=
EXTT1=
EXTT2=
EXTT3=
EXTT4=
EXTT5=
EXTT6=
EXTT7=
EXTT8=
EXTT9=
EXTT10=
EXTT11=
PLAYORDER=
